<svg xmlns="http://www.w3.org/2000/svg" xml:space="preserve" id="Layer_2" data-name="Layer 2" version="1.1" viewBox="0 0 681.86 200"><defs id="defs4"><style id="style2">.ABDLogoText{fill:#000}.ABDLogoBlue{fill:#46c8f5}.ABDLogoGreen{fill:#4cad67}.alb{fill:#0098ff}.alg{fill:#0065a9}</style></defs><g id="g464"><path id="rect362-6" d="M158.97 0h481.859l-116.85 200H42.118Z" style="fill:#4d4d4d;stroke-width:2.234px"/><path id="rect362" d="M153.977 8.545h481.86L528.97 191.455H47.111Z" style="fill:#1a1a1a;stroke-width:10.3358px"/><path id="path573" d="M570.113 52.865q-3.224 0-5.94-1.168-2.868-1.218-5.102-3.452-1.066-1.066-1.98-2.361-.889-1.32-1.473-2.742-1.142-2.716-1.142-5.914 0-3.25 1.168-5.991 1.193-2.767 3.452-5.103 1.193-1.218 2.463-2.056 1.269-.837 2.589-1.37 2.792-1.143 5.965-1.143 3.224 0 5.991 1.142 1.447.584 2.716 1.473 1.27.863 2.336 1.954 1.244 1.27 2.081 2.59.863 1.294 1.371 2.513 1.168 2.716 1.168 5.965 0 3.224-1.142 5.94-.559 1.32-1.447 2.64-.863 1.32-2.006 2.463-1.066 1.066-2.36 1.954-1.295.889-2.742 1.498-2.716 1.168-5.966 1.168m0-3.326q1.295 0 2.412-.203 1.142-.228 2.31-.736.965-.431 1.98-1.091t1.98-1.625q1.828-1.828 2.742-4.01.913-2.184.913-4.697 0-1.37-.253-2.488-.229-1.117-.66-2.183-.94-2.26-2.717-4.062t-3.985-2.69q-1.219-.508-2.36-.711-1.118-.203-2.286-.203-1.421 0-2.589.254-1.142.228-2.183.66-2.158.939-3.985 2.767-1.803 1.802-2.717 3.985-.913 2.132-.913 4.696 0 2.488.913 4.671.914 2.183 2.717 3.986 1.878 1.878 3.985 2.741 1.168.508 2.285.736 1.142.203 2.411.203m.533-3.63q-4.213 0-6.828-2.386-2.59-2.411-2.59-6.295 0-2.082.686-3.681.71-1.6 1.878-2.666 1.194-1.091 2.92-1.7 1.726-.635 3.909-.635 1.472 0 2.767.203.584.102 1.295.28.736.177 1.32.38v4.265q-1.295-.787-2.463-1.143-1.218-.355-2.437-.355-2.437 0-3.757 1.32-1.37 1.32-1.37 3.732t1.345 3.706q1.32 1.32 3.858 1.32 1.422 0 2.539-.33 1.117-.355 2.285-1.168v4.265q-.711.203-1.397.38-.685.153-1.345.28-1.32.228-2.615.228" style="-inkscape-font-specification:&quot;Hack Bold&quot;;text-align:center;text-anchor:middle;fill:#fff;stroke-width:4.33238px;font-family:Hack;font-size:51.9885px;font-weight:700"/><path id="path18" d="M554.476 100.155c0 14.61-3.335 27.687-10.006 39.243-6.67 11.556-15.098 20.425-25.282 26.598-7.657 4.632-16.047 7.863-25.179 9.696-9.132 1.822-19.945 2.743-32.44 2.743h-55.31V21.565h56.888c12.777 0 23.807 1.071 33.08 3.213q13.911 3.211 23.384 9.113c10.814 6.605 19.335 15.502 25.545 26.701s9.32 24.39 9.32 39.554zm-41.817-.32q0-15.487-5.637-26.494c-3.758-7.337-9.715-13.078-17.86-17.22-4.144-2.04-8.372-3.42-12.693-4.163-4.322-.742-10.833-1.108-19.542-1.108h-10.222v98.178h10.222c9.62 0 16.676-.441 21.176-1.315 4.491-.874 8.888-2.48 13.172-4.792 7.376-4.209 12.778-9.846 16.226-16.91 3.438-7.056 5.158-15.784 5.158-26.175" class="ABDLogoText" style="fill:#fff;stroke-width:.939509px"/><path id="path16" d="M402.332 130.388c0 7.582-1.531 14.365-4.585 20.331-3.053 5.966-7.253 10.917-12.59 14.854-6.181 4.632-12.974 7.939-20.386 9.902-7.413 1.964-16.799 2.95-28.176 2.95h-68.472V21.565h60.89c12.636 0 21.89.423 27.753 1.268 5.862.846 11.678 2.706 17.437 5.581 5.966 3.016 10.41 7.075 13.322 12.167q4.37 7.64 4.37 17.437 0 11.373-6.004 20.068c-4.003 5.797-9.658 10.306-16.958 13.538v.846c10.25 2.039 18.386 6.248 24.39 12.646 6.003 6.388 9.01 14.816 9.01 25.282zM350.5 65.92q0-3.892-1.944-7.798c-1.297-2.593-3.599-4.528-6.896-5.796-2.95-1.128-6.624-1.738-11.011-1.842-4.388-.103-10.551-.16-18.49-.16h-3.796v33.184h6.323c6.389 0 11.838-.103 16.329-.32 4.49-.206 8.042-.91 10.635-2.104 3.655-1.616 6.041-3.702 7.16-6.267 1.117-2.564 1.681-5.533 1.681-8.897zm9.8 63.84c0-4.989-.968-8.831-2.894-11.537s-5.205-4.726-9.827-6.06c-3.157-.911-7.498-1.4-13.04-1.475-5.535-.066-11.322-.103-17.344-.103h-8.832v39.083h2.941c11.35 0 19.486-.037 24.39-.103s9.423-.987 13.566-2.744c4.2-1.756 7.094-4.086 8.672-7.008q2.367-4.37 2.367-10.062z" class="ABDLogoText" style="fill:#fff;stroke-width:.939509px"/><path id="path14" d="M264.206 178.425h-41.78l-10.927-31.708h-58.043l-10.926 31.708h-40.765l57.939-156.86h46.562zm-62.421-60.466-19.298-56.192-19.297 56.192Z" class="ABDLogoText" style="fill:#fff;stroke-width:.939509px"/></g><g id="g263" transform="scale(2)"><path id="path170-3" d="m313.116 32.588-6.754 11.558 17.498 5.88-26.139 8.911-10.92 18.69L340.93 56.98V43.015Z" class="alg" style="fill:#4cad67;fill-opacity:1;stroke-width:.5px"/><path id="path10-5" d="M273.73 100h-11.74L320.413 0h11.741z" class="alb" style="fill:#46c8f5;fill-opacity:1;stroke-width:.5px;display:inline"/><path id="path12-7" d="M67.195 0 8.77 100h12.289L79.485 0Z" class="alg" style="fill:#4cad67;fill-opacity:1;stroke-width:.5px;display:inline"/><path id="path168-6" d="M54.124 22.372 0 43.02v13.965l27.63 10.733 6.93-11.86-17.495-5.878 26.14-8.917Z" class="alb" style="fill:#46c8f5;fill-opacity:1;stroke-width:.5px;display:inline"/></g></svg>